<?xml version="1.0" encoding="UTF-8" standalone="no"?>
<!-- Created with Inkscape (http://www.inkscape.org/) -->

<svg
   xmlns:dc="http://purl.org/dc/elements/1.1/"
   xmlns:cc="http://creativecommons.org/ns#"
   xmlns:rdf="http://www.w3.org/1999/02/22-rdf-syntax-ns#"
   xmlns:svg="http://www.w3.org/2000/svg"
   xmlns="http://www.w3.org/2000/svg"
   xmlns:sodipodi="http://sodipodi.sourceforge.net/DTD/sodipodi-0.dtd"
   xmlns:inkscape="http://www.inkscape.org/namespaces/inkscape"
   version="1.1"
   id="svg815"
   xml:space="preserve"
   width="121.41134"
   height="123.62616"
   viewBox="0 0 121.41134 123.62616"
   sodipodi:docname="bioc_code_browse.svg"
   inkscape:export-filename="/home/msmith/Pictures/bioc-logo/bioc_code_browse_square.png"
   inkscape:export-xdpi="299.67548"
   inkscape:export-ydpi="299.67548"
   inkscape:version="0.92.5 (2060ec1f9f, 2020-04-08)"><metadata
     id="metadata821"><rdf:RDF><cc:Work
         rdf:about=""><dc:format>image/svg+xml</dc:format><dc:type
           rdf:resource="http://purl.org/dc/dcmitype/StillImage" /><dc:title></dc:title></cc:Work></rdf:RDF></metadata><defs
     id="defs819" /><sodipodi:namedview
     pagecolor="#1a81c2"
     bordercolor="#666666"
     borderopacity="1"
     objecttolerance="10"
     gridtolerance="10"
     guidetolerance="10"
     inkscape:pageopacity="0"
     inkscape:pageshadow="2"
     inkscape:window-width="3840"
     inkscape:window-height="2004"
     id="namedview817"
     showgrid="false"
     inkscape:zoom="5.1153431"
     inkscape:cx="189.48716"
     inkscape:cy="30.034302"
     inkscape:window-x="2560"
     inkscape:window-y="52"
     inkscape:window-maximized="1"
     inkscape:current-layer="g825"
     fit-margin-top="0"
     fit-margin-left="0"
     fit-margin-right="0"
     fit-margin-bottom="0"
     inkscape:pagecheckerboard="false" /><g
     id="g823"
     inkscape:groupmode="layer"
     inkscape:label="ink_ext_XXXXXX"
     transform="matrix(1.3333333,0,0,-1.3333333,3.0110227e-4,123.62616)"><g
       id="g825"
       transform="scale(0.1)"><path
   d="m 822.406,779.391 c -2.047,18.664 -18.832,32.136 -37.496,30.089 -18.648,-2.042 -32.117,-18.828 -30.082,-37.488 2.043,-18.656 18.824,-32.117 37.481,-30.09 18.664,2.047 32.132,18.836 30.097,37.489"
   style="fill:#ffffff;fill-opacity:1;fill-rule:nonzero;stroke:none"
   id="path827"
   inkscape:connector-curvature="0"
   inkscape:export-filename="/home/msmith/path873.png"
   inkscape:export-xdpi="536.88562"
   inkscape:export-ydpi="536.88562" /><path
   d="m 879.23,896.68 c 4.211,9.097 0.258,19.871 -8.832,24.09 -9.089,4.218 -19.878,0.269 -24.097,-8.817 -4.223,-9.098 -0.266,-19.879 8.832,-24.105 9.082,-4.207 19.879,-0.254 24.097,8.832"
   style="fill:#ffffff;fill-opacity:1;fill-rule:nonzero;stroke:none"
   id="path829"
   inkscape:connector-curvature="0"
   inkscape:export-filename="/home/msmith/path873.png"
   inkscape:export-xdpi="536.88562"
   inkscape:export-ydpi="536.88562" /><path
   d="m 388.672,798.965 c -2.219,20.293 12.449,38.555 32.734,40.777 20.293,2.215 38.555,-12.441 40.774,-32.738 2.222,-20.293 -12.434,-38.551 -32.727,-40.777 -20.293,-2.223 -38.555,12.445 -40.781,32.738"
   style="fill:#ffffff;fill-opacity:1;fill-rule:nonzero;stroke:none"
   id="path831"
   inkscape:connector-curvature="0"
   inkscape:export-filename="/home/msmith/path873.png"
   inkscape:export-xdpi="536.88562"
   inkscape:export-ydpi="536.88562" /><path
   d="m 396.801,854.703 c -0.938,8.496 -8.555,14.613 -17.035,13.676 -8.481,-0.934 -14.621,-8.555 -13.696,-17.031 0.938,-8.5 8.563,-14.629 17.055,-13.703 8.492,0.937 14.609,8.57 13.676,17.058"
   style="fill:#ffffff;fill-opacity:1;fill-rule:nonzero;stroke:none"
   id="path833"
   inkscape:connector-curvature="0"
   inkscape:export-filename="/home/msmith/path873.png"
   inkscape:export-xdpi="536.88562"
   inkscape:export-ydpi="536.88562" /><path
   d="m 756.719,706.777 c -1.746,16.02 -16.16,27.594 -32.188,25.844 -16.015,-1.754 -27.59,-16.168 -25.84,-32.199 1.758,-16.02 16.164,-27.586 32.2,-25.824 16.011,1.75 27.586,16.156 25.828,32.179"
   style="fill:#ffffff;fill-opacity:1;fill-rule:nonzero;stroke:none"
   id="path835"
   inkscape:connector-curvature="0"
   inkscape:export-filename="/home/msmith/path873.png"
   inkscape:export-xdpi="536.88562"
   inkscape:export-ydpi="536.88562" /><path
   d="m 678.535,668.793 c 5.879,12.668 0.371,27.711 -12.297,33.59 -12.683,5.879 -27.715,0.371 -33.593,-12.309 -5.875,-12.664 -0.372,-27.711 12.296,-33.59 12.688,-5.879 27.727,-0.371 33.594,12.309"
   style="fill:#ffffff;fill-opacity:1;fill-rule:nonzero;stroke:none"
   id="path837"
   inkscape:connector-curvature="0"
   inkscape:export-filename="/home/msmith/path873.png"
   inkscape:export-xdpi="536.88562"
   inkscape:export-ydpi="536.88562" /><path
   d="m 828.598,732.75 c -0.809,7.473 4.59,14.199 12.07,15.023 7.48,0.821 14.199,-4.585 15.012,-12.07 0.82,-7.461 -4.571,-14.183 -12.063,-15.012 -7.469,-0.812 -14.187,4.586 -15.019,12.059"
   style="fill:#ffffff;fill-opacity:1;fill-rule:nonzero;stroke:none"
   id="path839"
   inkscape:connector-curvature="0"
   inkscape:export-filename="/home/msmith/path873.png"
   inkscape:export-xdpi="536.88562"
   inkscape:export-ydpi="536.88562" /><path
   d="m 717.578,821.711 c -0.82,7.473 4.578,14.207 12.039,15.027 7.492,0.817 14.211,-4.59 15.039,-12.074 0.824,-7.461 -4.59,-14.191 -12.066,-15.012 -7.485,-0.812 -14.199,4.582 -15.012,12.059"
   style="fill:#ffffff;fill-opacity:1;fill-rule:nonzero;stroke:none"
   id="path841"
   inkscape:connector-curvature="0"
   inkscape:export-filename="/home/msmith/path873.png"
   inkscape:export-xdpi="536.88562"
   inkscape:export-ydpi="536.88562" /><path
   d="m 665.313,852.781 c -1.165,10.684 6.55,20.301 17.226,21.473 10.691,1.164 20.305,-6.563 21.465,-17.234 1.172,-10.692 -6.531,-20.297 -17.227,-21.457 -10.683,-1.172 -20.293,6.542 -21.464,17.218"
   style="fill:#ffffff;fill-opacity:1;fill-rule:nonzero;stroke:none"
   id="path843"
   inkscape:connector-curvature="0"
   inkscape:export-filename="/home/msmith/path873.png"
   inkscape:export-xdpi="536.88562"
   inkscape:export-ydpi="536.88562" /><path
   d="m 611.02,872.82 c -8.485,11.121 -6.356,27.004 4.746,35.461 11.105,8.496 26.972,6.371 35.449,-4.726 8.476,-11.114 6.359,-26.992 -4.746,-35.469 -11.082,-8.477 -26.973,-6.348 -35.449,4.734"
   style="fill:#ffffff;fill-opacity:1;fill-rule:nonzero;stroke:none"
   id="path845"
   inkscape:connector-curvature="0"
   inkscape:export-filename="/home/msmith/path873.png"
   inkscape:export-xdpi="536.88562"
   inkscape:export-ydpi="536.88562" /><path
   d="m 533.191,898.184 c -1.57,14.359 8.789,27.285 23.161,28.855 14.367,1.57 27.281,-8.797 28.859,-23.164 1.57,-14.359 -8.789,-27.285 -23.168,-28.84 -14.363,-1.578 -27.281,8.793 -28.852,23.149"
   style="fill:#ffffff;fill-opacity:1;fill-rule:nonzero;stroke:none"
   id="path847"
   inkscape:connector-curvature="0"
   inkscape:export-filename="/home/msmith/path873.png"
   inkscape:export-xdpi="536.88562"
   inkscape:export-ydpi="536.88562" /><path
   d="m 492.34,841.664 1.621,0.57 c 16.519,6.317 25.254,24.579 19.445,40.731 -5.617,15.574 -22.715,23.699 -38.937,18.465 l -1.555,-0.547 c -16.523,-6.305 -25.273,-24.574 -19.445,-40.727 5.59,-15.636 22.668,-23.734 38.871,-18.492"
   style="fill:#ffffff;fill-opacity:1;fill-rule:nonzero;stroke:none"
   id="path849"
   inkscape:connector-curvature="0"
   inkscape:export-filename="/home/msmith/path873.png"
   inkscape:export-xdpi="536.88562"
   inkscape:export-ydpi="536.88562" /><path
   d="m 330.176,734.809 c -1.875,17.086 10.469,32.464 27.551,34.328 17.097,1.875 32.468,-10.465 34.336,-27.559 1.863,-17.086 -10.469,-32.457 -27.559,-34.32 -17.094,-1.875 -32.461,10.461 -34.328,27.551"
   style="fill:#ffffff;fill-opacity:1;fill-rule:nonzero;stroke:none"
   id="path851"
   inkscape:connector-curvature="0"
   inkscape:export-filename="/home/msmith/path873.png"
   inkscape:export-xdpi="536.88562"
   inkscape:export-ydpi="536.88562" /><path
   d="m 265.879,717.227 c -1.367,12.371 7.582,23.527 19.957,24.886 12.394,1.344 23.535,-7.605 24.883,-19.98 1.355,-12.391 -7.574,-23.524 -19.965,-24.883 -12.391,-1.352 -23.527,7.586 -24.875,19.977"
   style="fill:#ffffff;fill-opacity:1;fill-rule:nonzero;stroke:none"
   id="path853"
   inkscape:connector-curvature="0"
   inkscape:export-filename="/home/msmith/path873.png"
   inkscape:export-xdpi="536.88562"
   inkscape:export-ydpi="536.88562" /><path
   d="m 351.836,883.227 c -1.406,12.828 -12.93,22.074 -25.762,20.675 -12.82,-1.402 -22.07,-12.937 -20.676,-25.75 1.411,-12.804 12.942,-22.074 25.762,-20.672 12.817,1.422 22.082,12.938 20.676,25.747"
   style="fill:#ffffff;fill-opacity:1;fill-rule:nonzero;stroke:none"
   id="path855"
   inkscape:connector-curvature="0"
   inkscape:export-filename="/home/msmith/path873.png"
   inkscape:export-xdpi="536.88562"
   inkscape:export-ydpi="536.88562" /><path
   d="m 287.23,873.559 c -1.57,14.418 -14.55,24.828 -28.964,23.254 -14.422,-1.583 -24.832,-14.551 -23.262,-28.965 1.578,-14.422 14.547,-24.856 28.976,-23.27 14.418,1.59 24.825,14.563 23.25,28.981"
   style="fill:#ffffff;fill-opacity:1;fill-rule:nonzero;stroke:none"
   id="path857"
   inkscape:connector-curvature="0"
   inkscape:export-filename="/home/msmith/path873.png"
   inkscape:export-xdpi="536.88562"
   inkscape:export-ydpi="536.88562" /><path
   d="m 856.07,851.469 c -1.64,15.019 -15.156,25.879 -30.187,24.234 -15.024,-1.64 -25.871,-15.172 -24.238,-30.199 1.64,-15.016 15.164,-25.859 30.203,-24.219 15.015,1.641 25.871,15.16 24.222,30.184"
   style="fill:#ffffff;fill-opacity:1;fill-rule:nonzero;stroke:none"
   id="path859"
   inkscape:connector-curvature="0"
   inkscape:export-filename="/home/msmith/path873.png"
   inkscape:export-xdpi="536.88562"
   inkscape:export-ydpi="536.88562" /><path
   d="m 611.98,702.715 c -1.16,10.683 -10.769,18.387 -21.445,17.215 -10.691,-1.16 -18.394,-10.766 -17.234,-21.446 1.172,-10.691 10.769,-18.406 21.465,-17.234 10.683,1.172 18.386,10.777 17.214,21.465"
   style="fill:#ffffff;fill-opacity:1;fill-rule:nonzero;stroke:none"
   id="path861"
   inkscape:connector-curvature="0"
   inkscape:export-filename="/home/msmith/path873.png"
   inkscape:export-xdpi="536.88562"
   inkscape:export-ydpi="536.88562" /><path
   d="m 554.844,731.785 c -0.938,8.559 -8.621,14.703 -17.156,13.778 -8.547,-0.934 -14.727,-8.622 -13.793,-17.168 0.941,-8.536 8.625,-14.704 17.168,-13.778 8.554,0.949 14.718,8.625 13.781,17.168"
   style="fill:#ffffff;fill-opacity:1;fill-rule:nonzero;stroke:none"
   id="path863"
   inkscape:connector-curvature="0"
   inkscape:export-filename="/home/msmith/path873.png"
   inkscape:export-xdpi="536.88562"
   inkscape:export-ydpi="536.88562" /><path
   d="m 505.488,770.523 c -0.703,6.426 -6.472,11.04 -12.883,10.336 -6.406,-0.699 -11.042,-6.457 -10.332,-12.871 0.707,-6.406 6.465,-11.035 12.872,-10.336 6.418,0.696 11.039,6.481 10.343,12.871"
   style="fill:#ffffff;fill-opacity:1;fill-rule:nonzero;stroke:none"
   id="path865"
   inkscape:connector-curvature="0"
   inkscape:export-filename="/home/msmith/path873.png"
   inkscape:export-xdpi="536.88562"
   inkscape:export-ydpi="536.88562" /><path
   d="M 173.816,754.426 200.602,733.07 V 120.645 C 199.27,55.4375 126.391,0 70.9063,0 54.2109,0 37.4883,0.722656 24.1211,10.4688 2.75781,26.2109 -0.609375,52.4414 0.078125,80.1836 2.06641,146.895 72.2344,198.578 129.746,200.859 c 13.977,0.606 27.992,-0.328 44.313,-9.453 3.183,-1.777 -0.243,563.02 -0.243,563.02"
   style="fill:#ffffff;fill-opacity:1;fill-rule:nonzero;stroke:none"
   id="path867"
   inkscape:connector-curvature="0"
   inkscape:export-filename="/home/msmith/path873.png"
   inkscape:export-xdpi="536.88562"
   inkscape:export-ydpi="536.88562" /><path
   d="m 231.016,826.469 c -1.813,16.527 -16.668,28.402 -33.161,26.613 -16.503,-1.805 -28.445,-16.652 -26.632,-33.172 1.808,-16.484 16.652,-28.402 33.164,-26.609 16.515,1.832 28.441,16.66 26.629,33.168"
   style="fill:#ffffff;fill-opacity:1;fill-rule:nonzero;stroke:none"
   id="path869"
   inkscape:connector-curvature="0"
   inkscape:export-filename="/home/msmith/path873.png"
   inkscape:export-xdpi="536.88562"
   inkscape:export-ydpi="536.88562" /><path
   d="m 871.773,716.07 c -1.164,10.684 6.551,20.297 17.227,21.469 10.691,1.168 20.301,-6.562 21.465,-17.23 1.172,-10.696 -6.535,-20.301 -17.227,-21.461 -10.683,-1.172 -20.293,6.543 -21.465,17.222"
   style="fill:#ffffff;fill-opacity:1;fill-rule:nonzero;stroke:none"
   id="path871"
   inkscape:connector-curvature="0"
   inkscape:export-filename="/home/msmith/path873.png"
   inkscape:export-xdpi="536.88562"
   inkscape:export-ydpi="536.88562" />
<flowRoot
   xml:space="preserve"
   id="flowRoot901"
   style="font-style:normal;font-variant:normal;font-weight:normal;font-stretch:normal;font-size:53.33333206px;line-height:1.25;font-family:Aller, Light;-inkscape-font-specification:'Aller, Light, ';letter-spacing:0px;word-spacing:0px;fill:#000000;fill-opacity:1;stroke:none"><flowRegion
     id="flowRegion903"><rect
       id="rect905"
       width="393.13101"
       height="93.639854"
       x="42.421398"
       y="41.325253" /></flowRegion><flowPara
     id="flowPara907" /></flowRoot><flowRoot
   xml:space="preserve"
   id="flowRoot1693"
   style="font-style:normal;font-variant:normal;font-weight:normal;font-stretch:normal;font-size:53.33333206px;line-height:1.25;font-family:Aller, Light;-inkscape-font-specification:'Aller, Light, ';letter-spacing:0px;word-spacing:0px;fill:#000000;fill-opacity:1;stroke:none"
   transform="matrix(7.5000002,0,0,-7.5000002,0,927.20005)"><flowRegion
     id="flowRegion1695"><rect
       id="rect1697"
       width="441.41711"
       height="98.136131"
       x="22.872366"
       y="127.53648" /></flowRegion><flowPara
     id="flowPara1699"></flowPara></flowRoot><g
   transform="matrix(6.5375203,0,0,6.5375203,258.98829,24.409532)"
   inkscape:label="ink_ext_XXXXXX"
   id="g1967"><g
     transform="scale(0.1)"
     id="g1969"><path
       inkscape:connector-curvature="0"
       id="path1971"
       style="fill:#ffffff;fill-opacity:1;fill-rule:nonzero;stroke:none"
       d="M 901.543,500.352 500.352,901.527 c -23.094,23.11 -60.567,23.11 -83.692,0 L 333.359,818.211 439.031,712.535 c 24.563,8.293 52.727,2.727 72.297,-16.847 19.688,-19.696 25.203,-48.102 16.699,-72.75 L 629.883,521.094 c 24.648,8.496 53.066,3.004 72.754,-16.711 27.5,-27.492 27.5,-72.059 0,-99.574 -27.52,-27.516 -72.078,-27.516 -99.61,0 -20.683,20.703 -25.8,51.097 -15.312,76.582 l -95,94.992 V 326.414 c 6.699,-3.32 13.027,-7.742 18.613,-13.312 27.5,-27.497 27.5,-72.059 0,-99.598 -27.5,-27.488 -72.09,-27.488 -99.57,0 -27.5,27.539 -27.5,72.101 0,99.598 6.797,6.789 14.668,11.925 23.066,15.363 v 252.281 c -8.398,3.438 -16.25,8.531 -23.066,15.367 -20.828,20.821 -25.84,51.395 -15.156,76.977 L 292.422,777.285 17.3242,502.211 c -23.10545,-23.129 -23.10545,-60.602 0,-83.711 L 418.535,17.3242 c 23.098,-23.10545 60.559,-23.10545 83.692,0 L 901.543,416.641 c 23.113,23.113 23.113,60.605 0,83.711" /></g></g></g></g></svg>